<?xml version="1.0" standalone="no"?>
<!DOCTYPE svg PUBLIC "-//W3C//DTD SVG 20010904//EN"
 "http://www.w3.org/TR/2001/REC-SVG-20010904/DTD/svg10.dtd">
<svg version="1.0" xmlns="http://www.w3.org/2000/svg"
 width="1000.000000pt" height="1000.000000pt" viewBox="0 0 1000.000000 1000.000000"
 preserveAspectRatio="xMidYMid meet">
<metadata>
Created by potrace 1.14, written by Peter Selinger 2001-2017
</metadata>
<g transform="translate(0.000000,1000.000000) scale(0.100000,-0.100000)"
fill="#000000" stroke="none">
<path d="M9762 9834 c-173 -44 -556 -167 -579 -186 -7 -6 -13 -7 -13 -3 0 4
-6 3 -12 -2 -7 -5 -35 -18 -63 -28 -27 -10 -68 -26 -90 -35 -22 -10 -68 -30
-103 -44 -186 -78 -576 -273 -652 -326 -14 -10 -29 -19 -35 -20 -5 -2 -19 -8
-30 -15 -58 -35 -201 -122 -224 -135 -40 -23 -292 -191 -331 -220 -19 -15 -86
-64 -149 -111 -435 -319 -869 -726 -1252 -1174 -47 -55 -118 -140 -157 -190
-40 -49 -77 -96 -82 -103 -6 -6 -66 -87 -134 -180 -214 -291 -460 -675 -606
-947 -24 -44 -52 -95 -63 -115 -94 -168 -309 -623 -422 -895 -167 -401 -345
-923 -450 -1320 -47 -178 -15 -190 -262 98 -119 139 -227 266 -242 282 -14 17
-66 77 -116 135 -49 58 -92 107 -95 110 -3 3 -39 45 -80 95 -41 49 -89 106
-106 125 -18 19 -226 262 -464 540 -237 278 -451 528 -475 555 -23 28 -98 114
-165 193 -68 78 -127 139 -131 135 -4 -4 -10 -33 -13 -64 -4 -31 -8 -66 -10
-76 -3 -11 -7 -44 -11 -73 -4 -29 -8 -60 -10 -69 -1 -9 -6 -38 -9 -66 -4 -27
-9 -61 -11 -75 -2 -14 -6 -43 -9 -65 -4 -22 -8 -51 -11 -65 -2 -14 -7 -47 -10
-75 -3 -27 -8 -61 -10 -75 -2 -14 -11 -74 -20 -135 -9 -60 -18 -121 -20 -135
-13 -93 -17 -118 -21 -145 -3 -16 -7 -50 -10 -75 -2 -25 -9 -70 -14 -100 -5
-30 -12 -75 -15 -100 -6 -45 -11 -83 -20 -130 -2 -14 -7 -49 -10 -79 -4 -30
-8 -62 -10 -71 -2 -9 -6 -41 -10 -70 -4 -29 -9 -62 -11 -74 -2 -11 -6 -38 -9
-61 -3 -22 -8 -51 -10 -65 -2 -14 -7 -50 -11 -80 -3 -30 -7 -57 -9 -60 -2 -3
-6 -30 -9 -60 -3 -31 -10 -78 -15 -105 -11 -57 -8 -66 22 -81 18 -8 161 -89
387 -217 19 -11 55 -31 80 -45 52 -29 91 -51 140 -79 19 -11 87 -50 150 -85
344 -195 491 -278 545 -308 33 -18 89 -50 125 -70 36 -21 83 -48 105 -60 22
-12 231 -131 465 -263 234 -132 448 -253 475 -268 28 -15 81 -45 119 -68 l69
-40 77 193 c116 287 321 725 440 941 15 27 47 86 70 130 43 80 180 316 238
410 17 28 39 64 48 80 75 134 403 605 554 795 129 162 209 260 304 369 122
139 464 485 595 601 122 110 381 315 496 395 55 38 102 72 105 75 6 7 273 173
340 212 372 213 883 411 1260 487 l55 11 38 133 c55 189 59 202 121 412 31
105 58 197 60 205 7 26 53 183 70 235 8 28 65 219 125 425 60 206 128 438 151
515 23 77 61 208 85 290 24 83 82 281 129 441 47 160 86 294 86 297 0 14 -48
5 -218 -39z"/>
<path d="M4147 8684 c-1 -1 -59 -5 -130 -9 -70 -3 -135 -8 -145 -9 -9 -2 -44
-7 -77 -10 -33 -4 -71 -9 -85 -11 -14 -2 -45 -7 -70 -10 -38 -5 -76 -12 -215
-39 -11 -2 -51 -12 -90 -21 -38 -9 -81 -19 -95 -21 -76 -15 -362 -107 -501
-162 -141 -57 -185 -77 -374 -172 -814 -409 -1480 -1077 -1892 -1895 -130
-259 -272 -629 -318 -835 -2 -8 -15 -64 -29 -125 -26 -109 -58 -284 -71 -380
-3 -27 -8 -63 -11 -80 -13 -96 -27 -339 -27 -490 -1 -129 12 -425 18 -435 2
-3 6 -36 10 -75 6 -74 9 -94 26 -188 5 -32 12 -70 14 -85 25 -181 130 -552
223 -787 183 -465 449 -902 776 -1275 89 -101 378 -381 476 -461 129 -105 306
-239 317 -239 4 -1 24 -14 43 -30 19 -17 40 -30 46 -30 7 0 14 -4 16 -8 3 -7
67 -49 143 -92 17 -10 59 -34 95 -55 223 -128 558 -271 830 -353 167 -51 430
-114 530 -126 25 -3 54 -8 65 -10 33 -6 97 -15 150 -21 28 -3 66 -8 85 -10
179 -23 633 -23 840 0 19 2 58 7 85 10 28 3 65 7 83 10 17 3 49 7 70 11 20 3
73 12 117 20 114 22 125 24 175 35 25 6 55 13 67 15 50 10 336 96 428 129 712
258 1363 712 1834 1280 46 55 92 110 102 122 58 70 220 308 292 428 114 190
241 448 314 635 57 147 104 279 102 290 0 3 5 19 11 35 11 29 75 263 84 307 3
13 10 48 16 78 6 30 13 64 14 75 2 11 6 34 9 50 4 17 9 50 12 75 3 25 8 52 10
60 3 14 13 97 20 170 29 300 25 686 -10 950 -2 19 -7 58 -11 85 -3 28 -15 97
-26 155 -11 58 -22 116 -24 130 -3 14 -7 33 -10 42 -3 10 -8 30 -10 45 -33
181 -171 581 -280 814 l-47 98 -86 -46 c-137 -73 -168 -91 -311 -182 -131 -83
-303 -201 -327 -224 -8 -9 -2 -33 27 -98 21 -47 60 -150 88 -230 56 -162 99
-327 136 -525 8 -38 15 -88 22 -149 3 -33 8 -69 10 -80 7 -36 17 -248 17 -360
0 -371 -57 -719 -178 -1085 -25 -74 -49 -144 -54 -155 -6 -11 -24 -54 -42 -95
-406 -955 -1243 -1686 -2244 -1959 -82 -23 -163 -44 -180 -47 -16 -2 -77 -13
-135 -24 -110 -20 -155 -26 -255 -35 -33 -3 -82 -8 -110 -11 -61 -6 -357 -6
-440 1 -123 9 -216 19 -287 30 -24 4 -56 9 -73 11 -193 29 -557 134 -740 214
-308 135 -584 300 -830 497 -112 89 -361 331 -451 436 -27 32 -53 64 -59 70
-34 40 -141 186 -192 262 -169 253 -304 531 -403 825 -31 94 -92 322 -104 390
-3 19 -8 46 -11 60 -3 14 -8 41 -11 60 -3 19 -7 45 -9 56 -2 12 -6 48 -10 80
-4 33 -8 70 -11 84 -5 36 -17 274 -17 350 0 81 13 314 19 343 2 12 6 45 9 72
7 75 14 116 41 250 81 408 241 806 467 1160 46 71 202 292 217 305 3 3 34 39
69 80 140 166 304 323 476 458 72 56 135 106 140 110 72 56 322 205 467 278
237 119 576 239 789 279 13 3 35 7 49 10 47 10 75 15 135 24 118 19 155 23
300 36 123 12 501 5 605 -10 14 -2 50 -6 80 -10 30 -3 78 -10 105 -15 28 -5
64 -12 80 -15 228 -37 561 -142 788 -248 l97 -46 51 62 c109 132 136 164 204
242 110 126 154 174 276 302 l59 61 -132 68 c-177 90 -168 86 -288 137 -179
77 -515 191 -623 211 -12 2 -58 13 -102 24 -86 22 -166 38 -230 47 -23 3 -52
8 -65 10 -14 3 -43 7 -65 10 -22 3 -56 7 -75 10 -150 19 -296 28 -493 29 -98
1 -179 1 -180 0z"/>
</g>
</svg>
